<svg xmlns="http://www.w3.org/2000/svg" width="32" height="32" viewBox="0 0 32 32" fill="none">
  <defs>
    <linearGradient id="g1" x1="0" y1="8" x2="16" y2="24" gradientUnits="userSpaceOnUse">
      <stop offset="0%" stop-color="#10B981"/>
      <stop offset="100%" stop-color="#059669"/>
    </linearGradient>
    <linearGradient id="g2" x1="16" y1="8" x2="32" y2="24" gradientUnits="userSpaceOnUse">
      <stop offset="0%" stop-color="#06B6D4"/>
      <stop offset="100%" stop-color="#0891B2"/>
    </linearGradient>
  </defs>
  <!-- Left O (Open) - emerald gradient -->
  <path d="M16 13C14 10 11.5 8 8.5 8C5 8 2 11 2 16C2 21 5 24 8.5 24C11.5 24 14 22 16 19" stroke="url(#g1)" stroke-width="3" stroke-linecap="round" fill="none"/>
  <!-- Right O (Ova) - cyan gradient -->
  <path d="M16 19C18 22 20.5 24 23.5 24C27 24 30 21 30 16C30 11 27 8 23.5 8C20.5 8 18 10 16 13" stroke="url(#g2)" stroke-width="3" stroke-linecap="round" fill="none"/>
</svg>
